<?xml version="1.0" encoding="UTF-8" standalone="no"?>
<svg
   xmlns:dc="http://purl.org/dc/elements/1.1/"
   xmlns:cc="http://creativecommons.org/ns#"
   xmlns:rdf="http://www.w3.org/1999/02/22-rdf-syntax-ns#"
   xmlns:svg="http://www.w3.org/2000/svg"
   xmlns="http://www.w3.org/2000/svg"
   version="1.0"
   width="1000.000000pt"
   height="1000.000000pt"
   viewBox="0 0 1000.000000 1000.000000"
   preserveAspectRatio="xMidYMid meet"
   id="svg100">
  <defs
     id="defs104" />
  <metadata
     id="metadata2">
Created by potrace 1.16, written by Peter Selinger 2001-2019
<rdf:RDF>
  <cc:Work
     rdf:about="">
    <dc:format>image/svg+xml</dc:format>
    <dc:type
       rdf:resource="http://purl.org/dc/dcmitype/StillImage" />
  </cc:Work>
</rdf:RDF>
</metadata>
  <g
     transform="translate(0.000000,1000.000000) scale(0.100000,-0.100000)"
     fill="#000000"
     stroke="none"
     id="g98">
    <path
       d="M4713 7900 c3 -14 16 -89 28 -167 l23 -143 221 0 221 0 26 157 c15 87 25 159 23 161 -1 2 -41 -44 -89 -102 -47 -58 -90 -108 -95 -111 -5 -3 -27 47 -48 110 l-38 116 -37 -112 c-21 -62 -39 -114 -42 -116 -2 -2 -48 49 -101 114 -62 75 -96 109 -92 93z"
       id="path4" />
    <path
       d="M4772 7548 c3 -23 4 -23 216 -26 l212 -2 0 25 0 25 -216 0 -215 0 3 -22z"
       id="path6" />
    <path
       d="M4212 7184 c-19 -20 -12 -1023 6 -1067 11 -25 66 -60 89 -56 5 1 122 1 261 0 l253 -1 -3 -87 -3 -88 -72 -3 -73 -3 0 -34 0 -35 336 0 335 0 -3 33 -3 32 -72 3 -72 3 -3 85 c-2 47 0 88 3 90 3 2 123 4 265 4 216 0 264 3 289 16 59 31 58 23 63 577 4 474 3 510 -14 528 -17 18 -38 19 -793 19 -682 -1 -778 -3 -789 -16z m1558 -449 l0 -425 -765 0 -765 0 0 425 0 425 765 0 765 0 0 -425z m-605 -712 c3 -21 9 -62 12 -90 l5 -53 -176 0 -176 0 0 37 c0 21 6 61 12 90 l13 53 151 0 152 0 7 -37z"
       id="path8" />
    <path
       d="M4435 6918 c-3 -7 -4 -106 -3 -218 l3 -205 25 0 c25 0 25 2 28 88 l3 87 53 0 53 0 48 -90 c40 -74 52 -90 71 -90 33 0 30 12 -16 92 -44 77 -49 101 -22 120 69 50 69 163 -2 208 -31 21 -234 27 -241 8z m193 -39 c62 -21 67 -114 9 -150 -24 -14 -46 -19 -87 -17 l-55 3 -3 74 c-2 41 -1 80 2 88 7 16 89 18 134 2z"
       id="path10" />
    <path
       d="M4824 6917 c-2 -7 -3 -105 -2 -217 l3 -205 80 -3 c95 -3 150 19 199 81 30 37 31 42 30 136 0 86 -3 101 -24 132 -33 46 -40 52 -82 72 -45 21 -196 24 -204 4z m197 -50 c44 -30 68 -79 69 -145 1 -120 -44 -179 -145 -189 -43 -5 -59 -3 -66 8 -10 16 -12 332 -2 342 3 4 30 7 58 7 38 0 61 -6 86 -23z"
       id="path12" />
    <path
       d="M5240 6710 l0 -221 23 3 c22 3 22 6 25 161 2 116 6 157 15 157 6 -1 58 -72 113 -158 84 -129 106 -158 127 -160 36 -4 38 9 35 238 l-3 195 -25 0 -25 0 -3 -158 c-2 -102 -6 -157 -13 -155 -5 2 -56 73 -112 158 -86 131 -106 155 -129 158 l-28 3 0 -221z"
       id="path14" />
    <path
       d="M3420 6143 c-14 -2 -99 -15 -190 -28 -91 -14 -216 -35 -278 -46 l-112 -21 122 -77 c102 -64 272 -175 287 -187 2 -2 -41 -63 -96 -136 -123 -165 -183 -246 -183 -251 0 -2 39 5 88 14 48 10 138 25 200 35 90 13 112 20 112 33 0 9 -16 117 -34 241 -19 124 -31 228 -27 232 3 4 53 13 109 20 56 6 106 14 111 17 5 4 0 39 -12 84 -22 83 -21 83 -97 70z"
       id="path16" />
    <path
       d="M6454 6071 c-13 -50 -18 -81 -11 -81 29 0 243 -33 249 -39 4 -3 -9 -107 -28 -230 -18 -124 -34 -232 -34 -241 0 -14 21 -20 113 -34 61 -10 151 -26 200 -36 48 -9 87 -16 87 -13 0 5 -53 77 -183 251 -55 73 -98 134 -96 136 15 12 230 153 307 200 51 32 92 60 89 62 -6 7 -529 93 -603 100 l-69 6 -21 -81z"
       id="path18" />
    <path
       d="M6402 5908 c-65 -171 -199 -377 -334 -514 l-70 -71 84 -7 c45 -4 168 -18 272 -31 105 -14 191 -23 193 -21 4 3 101 649 99 653 -1 1 -42 7 -91 13 -50 6 -100 13 -113 16 -20 4 -26 -2 -40 -38z"
       id="path20" />
    <path
       d="M3413 5928 c-57 -9 -62 -12 -58 -31 3 -12 25 -159 49 -326 25 -167 47 -305 49 -307 2 -2 53 2 113 11 89 12 381 45 401 45 3 0 -28 35 -68 78 -138 144 -246 306 -309 462 l-32 80 -42 -1 c-22 -1 -69 -6 -103 -11z"
       id="path22" />
    <path
       d="M1690 4400 c0 -63 2 -70 20 -70 19 0 20 -7 20 -255 0 -248 -1 -255 -20 -255 -18 0 -20 -7 -20 -70 l0 -70 105 0 105 0 0 70 c0 64 -2 70 -20 70 -20 0 -21 5 -18 93 3 83 5 92 22 92 27 0 122 -176 101 -188 -11 -6 -15 -26 -15 -72 l0 -65 125 0 125 0 0 69 0 70 -32 3 c-30 3 -37 10 -80 93 -27 49 -48 92 -48 95 0 3 13 10 28 16 16 6 42 28 58 49 26 35 29 47 32 132 5 122 -2 155 -41 200 -50 57 -75 63 -272 63 l-175 0 0 -70z m348 -153 c4 -104 -1 -109 -97 -105 l-76 3 -3 93 -3 93 88 -3 88 -3 3 -78z"
       id="path24" />
    <path
       d="M2290 4405 c0 -58 3 -68 20 -72 19 -5 20 -14 20 -258 0 -244 -1 -253 -20 -258 -17 -4 -20 -14 -20 -72 l0 -66 203 3 204 3 37 29 c70 53 76 78 76 361 0 283 -6 308 -76 361 l-37 29 -204 3 -203 3 0 -66z m375 -330 l0 -250 -97 -3 -98 -3 0 256 0 256 98 -3 97 -3 0 -250z"
       id="path26" />
    <path
       d="M2880 4400 c0 -63 2 -70 20 -70 19 0 20 -7 20 -254 0 -245 -1 -254 -20 -259 -17 -4 -20 -14 -20 -71 l0 -66 110 0 110 0 0 70 c0 63 -2 70 -20 70 -19 0 -20 7 -20 157 0 86 4 153 8 148 5 -6 53 -108 108 -227 l99 -218 68 0 67 0 0 325 c0 318 0 325 20 325 18 0 20 7 20 70 l0 70 -110 0 -110 0 0 -70 c0 -63 2 -70 20 -70 19 0 20 -7 20 -152 l-1 -153 -37 80 c-20 44 -67 143 -103 220 l-65 140 -92 3 -92 3 0 -71z"
       id="path28" />
    <path
       d="M3870 4447 c-30 -16 -51 -37 -67 -67 -22 -42 -23 -51 -23 -308 0 -264 0 -265 25 -308 38 -64 87 -84 211 -84 84 0 107 4 144 23 66 33 84 64 88 153 l4 75 -68 -3 -69 -3 -5 -50 -5 -50 -90 0 -90 0 0 250 0 250 90 0 90 0 5 -50 5 -50 68 -3 67 -3 0 63 c0 82 -28 132 -89 165 -38 20 -59 23 -146 23 -87 0 -108 -3 -145 -23z"
       id="path30" />
    <path
       d="M4330 4400 c0 -63 2 -70 20 -70 19 0 20 -7 20 -262 0 -260 0 -261 25 -304 38 -64 87 -84 211 -84 125 0 170 18 208 82 l26 45 0 261 c0 255 1 262 20 262 18 0 20 7 20 70 l0 70 -110 0 -110 0 0 -66 c0 -58 3 -67 20 -71 20 -5 20 -12 18 -257 l-3 -251 -90 0 -90 0 -3 253 c-2 247 -2 252 18 252 18 0 20 6 20 70 l0 70 -110 0 -110 0 0 -70z"
       id="path32" />
    <path
       d="M4960 4400 c0 -63 2 -70 20 -70 19 0 20 -7 20 -255 0 -248 -1 -255 -20 -255 -18 0 -20 -7 -20 -70 l0 -70 105 0 105 0 0 70 c0 64 -2 70 -20 70 -20 0 -21 5 -18 92 3 77 6 93 20 96 12 2 30 -22 67 -89 42 -79 47 -94 35 -104 -11 -8 -14 -26 -12 -70 l3 -60 123 -3 122 -3 0 70 0 70 -32 3 c-30 3 -37 11 -81 93 -42 80 -46 91 -31 100 83 50 104 93 104 219 0 107 -12 146 -56 188 -46 43 -74 48 -260 48 l-174 0 0 -70z m348 -153 c4 -104 -1 -109 -97 -105 l-76 3 -3 93 -3 93 88 -3 88 -3 3 -78z"
       id="path34" />
    <path
       d="M5664 4451 c-23 -10 -52 -34 -65 -52 -22 -31 -24 -46 -27 -154 -3 -112 -2 -122 20 -155 44 -65 79 -80 187 -80 53 0 102 -4 109 -9 9 -5 12 -31 10 -92 l-3 -84 -85 -3 c-97 -3 -110 5 -110 70 l0 38 -66 0 -66 0 4 -73 c3 -62 8 -80 30 -110 42 -54 94 -70 220 -65 92 3 109 6 141 28 59 40 77 89 77 206 0 113 -19 161 -79 201 -29 20 -47 23 -130 23 -53 0 -102 4 -110 9 -17 11 -25 134 -10 162 9 18 19 19 97 17 l87 -3 3 -52 3 -53 70 0 69 0 0 54 c0 66 -12 101 -48 140 -42 45 -80 56 -189 56 -74 0 -108 -5 -139 -19z"
       id="path36" />
    <path
       d="M6214 4451 c-23 -10 -52 -34 -65 -52 l-24 -34 0 -290 0 -290 24 -34 c38 -52 89 -71 203 -71 107 0 139 8 182 48 53 50 56 69 56 346 0 156 -4 266 -11 283 -14 38 -57 83 -96 99 -50 22 -218 18 -269 -5z m231 -376 l0 -250 -87 -3 c-79 -3 -88 -1 -98 18 -14 26 -12 447 2 473 8 15 21 17 96 15 l87 -3 0 -250z"
       id="path38" />
    <path
       d="M6760 4451 c-71 -38 -99 -95 -100 -204 0 -120 22 -174 91 -216 28 -17 51 -21 125 -21 121 0 126 -4 122 -105 l-3 -80 -89 -3 c-101 -3 -106 0 -106 66 l0 43 -67 -3 -68 -3 1 -60 c1 -72 20 -114 71 -152 33 -26 45 -28 135 -31 124 -5 159 2 199 35 51 43 69 94 69 197 0 104 -21 161 -73 198 -27 19 -49 24 -137 28 -58 3 -111 9 -117 13 -15 9 -18 144 -5 165 6 9 33 12 98 10 l89 -3 3 -52 3 -53 70 0 69 0 0 53 c-1 86 -46 161 -113 186 -16 6 -74 11 -130 11 -79 -1 -110 -5 -137 -19z"
       id="path40" />
    <path
       d="M7470 4400 c0 -63 2 -70 20 -70 19 0 20 -7 20 -255 0 -248 -1 -255 -20 -255 -18 0 -20 -7 -20 -70 l0 -70 110 0 110 0 0 70 c0 63 -2 70 -20 70 -19 0 -20 7 -20 255 0 248 1 255 20 255 18 0 20 7 20 70 l0 70 -110 0 -110 0 0 -70z"
       id="path42" />
    <path
       d="M7760 4380 l0 -90 70 0 c63 0 70 2 70 20 0 16 7 20 35 20 l35 0 0 -255 c0 -248 -1 -255 -20 -255 -18 0 -20 -7 -20 -70 l0 -70 110 0 110 0 0 70 c0 63 -2 70 -20 70 -19 0 -20 7 -20 255 l0 255 35 0 c28 0 35 -4 35 -20 0 -18 7 -20 65 -20 l65 0 0 90 0 90 -275 0 -275 0 0 -90z"
       id="path44" />
    <path
       d="M1666 3164 c-12 -12 -16 -37 -16 -109 0 -112 8 -125 79 -125 54 0 71 12 71 52 0 21 -5 28 -19 28 -10 0 -21 -9 -24 -21 -4 -16 -12 -20 -34 -17 l-28 3 0 80 0 80 28 3 c22 3 30 -1 34 -17 7 -28 43 -28 43 0 0 44 -18 59 -70 59 -31 0 -54 -6 -64 -16z"
       id="path46" />
    <path
       d="M1878 3078 c5 -131 15 -148 82 -148 67 0 77 17 82 148 l5 102 -32 0 -32 0 5 -105 5 -105 -33 0 -33 0 5 105 5 105 -32 0 -32 0 5 -102z"
       id="path48" />
    <path
       d="M2125 3055 l0 -125 33 0 33 0 -7 50 c-4 30 -3 50 3 50 16 0 31 -44 26 -73 -5 -26 -3 -27 36 -27 34 0 41 3 41 20 0 11 -4 20 -8 20 -5 0 -15 15 -24 33 -15 31 -15 34 3 45 14 9 19 24 19 56 0 62 -17 76 -93 76 l-62 0 0 -125z"
       id="path50" />
    <path
       d="M2376 3158 c-40 -56 -6 -128 59 -128 32 0 35 -2 35 -30 0 -27 -3 -30 -30 -30 -23 0 -30 4 -30 20 0 13 -7 20 -20 20 -28 0 -35 -25 -16 -55 14 -21 24 -25 66 -25 57 0 80 22 80 77 0 44 -30 73 -75 73 -32 0 -35 2 -35 30 0 27 3 30 30 30 23 0 30 -4 30 -20 0 -13 7 -20 20 -20 28 0 35 25 16 55 -14 21 -24 25 -66 25 -39 0 -52 -4 -64 -22z"
       id="path52" />
    <path
       d="M2602 3168 c-16 -16 -16 -210 0 -226 19 -19 102 -15 121 6 24 26 24 193 1 216 -19 19 -104 22 -122 4z"
       id="path54" />
    <path
       d="M2820 3161 c-5 -11 -10 -38 -10 -60 0 -47 26 -71 78 -71 30 0 33 -2 30 -27 -2 -22 -9 -29 -31 -31 -22 -3 -30 1 -34 17 -8 31 -43 28 -43 -3 0 -37 26 -56 75 -56 56 0 75 19 75 75 0 52 -24 75 -78 75 -30 0 -33 2 -30 28 2 21 9 28 31 30 22 3 30 -1 34 -17 7 -28 43 -28 43 0 0 45 -17 59 -75 59 -43 0 -56 -4 -65 -19z"
       id="path56" />
    <path
       d="M3170 3161 c-5 -11 -10 -60 -10 -110 0 -102 10 -121 65 -121 21 0 37 -6 43 -17 5 -9 16 -14 24 -10 12 4 15 29 17 121 2 146 -2 156 -74 156 -43 0 -56 -4 -65 -19z"
       id="path58" />
    <path
       d="M3380 3160 c0 -11 5 -20 10 -20 6 0 10 -38 10 -93 0 -59 4 -97 12 -105 7 -7 33 -12 58 -12 69 0 77 14 82 143 l5 107 -34 0 c-25 0 -33 -4 -33 -18 0 -10 5 -23 10 -28 6 -6 10 -43 8 -85 l-3 -74 -34 -3 -34 -3 5 105 5 106 -34 0 c-26 0 -33 -4 -33 -20z"
       id="path60" />
    <path
       d="M3630 3160 c0 -11 5 -20 10 -20 6 0 10 -33 10 -79 0 -44 -4 -83 -10 -86 -5 -3 -10 -15 -10 -26 0 -17 7 -19 75 -19 74 0 75 0 75 26 0 25 -1 26 -45 20 l-45 -7 0 30 c0 29 3 31 35 31 31 0 35 3 35 25 0 22 -4 25 -35 25 -32 0 -35 2 -35 31 l0 30 45 -7 c44 -6 45 -5 45 20 0 26 -1 26 -75 26 -68 0 -75 -2 -75 -20z"
       id="path62" />
    <path
       d="M3985 3055 l0 -125 33 0 c25 0 32 4 32 20 0 11 -4 20 -10 20 -5 0 -10 14 -10 30 0 27 3 30 33 30 54 0 77 23 77 79 0 26 -5 52 -12 59 -7 7 -40 12 -77 12 l-66 0 0 -125z"
       id="path64" />
    <path
       d="M4215 3055 l0 -125 33 0 33 0 -7 50 c-4 30 -3 50 3 50 16 0 31 -44 26 -73 -5 -26 -3 -27 36 -27 34 0 41 3 41 20 0 11 -4 20 -8 20 -5 0 -15 15 -24 33 -15 31 -15 34 3 45 14 9 19 24 19 56 0 62 -17 76 -93 76 l-62 0 0 -125z"
       id="path66" />
    <path
       d="M4466 3158 c-11 -16 -16 -46 -16 -103 0 -105 13 -125 80 -125 67 0 80 20 80 125 0 105 -13 125 -80 125 -39 0 -52 -4 -64 -22z"
       id="path68" />
    <path
       d="M4692 3168 c-16 -16 -16 -210 0 -226 7 -7 33 -12 58 -12 63 0 80 20 80 93 l0 57 -45 0 c-41 0 -45 -2 -45 -25 0 -18 5 -25 19 -25 21 0 30 -16 23 -42 -3 -12 -14 -18 -33 -18 l-29 0 0 85 0 85 29 0 c20 0 30 -6 34 -20 3 -12 14 -20 26 -20 26 0 29 40 5 64 -19 19 -104 22 -122 4z"
       id="path70" />
    <path
       d="M4905 3055 l0 -125 33 0 33 0 -7 50 c-4 28 -4 50 -1 50 13 0 31 -46 29 -72 -2 -26 0 -28 38 -28 33 0 40 3 40 20 0 11 -4 20 -10 20 -5 0 -16 13 -25 30 -14 28 -14 31 5 50 13 13 20 33 20 58 0 55 -23 72 -96 72 l-59 0 0 -125z"
       id="path72" />
    <path
       d="M5202 3148 c2 -38 -40 -178 -53 -178 -5 0 -9 -9 -9 -20 0 -17 7 -20 41 -20 39 0 41 2 37 25 -5 23 -2 25 31 24 20 0 30 -3 24 -6 -7 -2 -13 -13 -13 -24 0 -16 7 -19 40 -19 33 0 40 3 40 19 0 11 -4 22 -8 25 -4 2 -21 50 -37 105 l-30 101 -32 0 c-31 0 -33 -2 -31 -32z"
       id="path74" />
    <path
       d="M5410 3160 c0 -11 5 -20 10 -20 6 0 10 -33 10 -79 0 -44 -4 -83 -10 -86 -5 -3 -10 -15 -10 -26 0 -15 7 -19 35 -19 l35 0 -5 58 -5 57 21 -58 c17 -48 25 -58 42 -55 14 2 26 18 39 53 l18 50 -5 -52 -6 -53 33 0 33 0 0 125 0 125 -31 0 c-30 0 -32 -2 -54 -80 -12 -44 -26 -78 -29 -75 -4 2 -18 38 -31 79 -23 75 -24 76 -57 76 -26 0 -33 -4 -33 -20z"
       id="path76" />
    <path
       d="M5781 3158 c4 -29 -41 -188 -52 -188 -5 0 -9 -9 -9 -20 0 -17 7 -20 41 -20 40 0 41 1 36 28 -5 27 -5 28 31 23 20 -2 31 -6 25 -8 -7 -3 -13 -13 -13 -24 0 -16 7 -19 40 -19 42 0 50 13 29 48 -5 9 -23 58 -38 107 -27 87 -29 90 -60 93 -29 3 -32 1 -30 -20z"
       id="path78" />
    <path
       d="M5995 3055 l0 -125 32 0 32 0 -4 68 -5 67 32 -67 c26 -53 38 -67 56 -68 21 0 22 3 22 94 0 51 3 108 6 125 6 30 6 31 -30 31 -29 0 -36 -4 -36 -19 0 -11 5 -21 11 -23 6 -2 9 -23 7 -48 l-3 -45 -32 68 c-28 59 -35 67 -60 67 l-28 0 0 -125z"
       id="path80" />
    <path
       d="M6370 3154 c0 -25 2 -26 36 -21 l37 6 -5 -104 -5 -105 34 0 c26 0 33 4 33 20 0 11 -4 20 -10 20 -6 0 -10 35 -10 84 l0 85 35 -6 c33 -5 35 -4 35 21 l0 26 -90 0 -90 0 0 -26z"
       id="path82" />
    <path
       d="M6628 3073 c5 -129 13 -143 82 -143 29 0 52 6 60 14 7 9 11 48 11 100 0 47 4 88 9 91 6 3 10 15 10 26 0 15 -7 19 -33 19 l-34 0 5 -105 5 -105 -33 0 -33 0 5 105 5 105 -32 0 -32 0 5 -107z"
       id="path84" />
    <path
       d="M6990 3160 c0 -11 5 -20 10 -20 6 0 10 -33 10 -79 0 -44 -4 -83 -10 -86 -5 -3 -10 -15 -10 -26 0 -15 7 -19 35 -19 l36 0 -7 50 -7 50 37 0 c32 0 36 3 36 25 0 22 -4 25 -35 25 -32 0 -35 2 -35 31 l0 30 45 -7 c44 -6 45 -5 45 20 0 26 -1 26 -75 26 -68 0 -75 -2 -75 -20z"
       id="path86" />
    <path
       d="M7218 3078 c5 -131 15 -148 82 -148 67 0 77 17 82 148 l5 102 -32 0 -32 0 5 -105 5 -105 -33 0 -33 0 5 105 5 105 -32 0 -32 0 5 -102z"
       id="path88" />
    <path
       d="M7460 3154 c0 -23 3 -25 33 -22 l32 3 3 -74 c2 -42 -2 -79 -8 -85 -5 -5 -10 -18 -10 -28 0 -14 8 -18 33 -18 l34 0 -5 105 -5 104 37 -6 c34 -5 36 -4 36 21 l0 26 -90 0 c-90 0 -90 0 -90 -26z"
       id="path90" />
    <path
       d="M7714 3149 c3 -17 6 -67 6 -110 0 -57 4 -82 16 -93 19 -19 104 -22 122 -4 8 8 12 46 12 105 0 55 4 93 10 93 6 0 10 9 10 20 0 17 -7 20 -39 20 -34 0 -40 -3 -38 -20 1 -11 5 -20 10 -20 4 0 7 -37 5 -82 l-3 -83 -30 0 -30 0 -3 83 c-2 52 1 82 8 82 5 0 10 9 10 20 0 16 -7 20 -36 20 -36 0 -36 -1 -30 -31z"
       id="path92" />
    <path
       d="M7965 3055 l0 -125 33 0 c25 0 32 4 32 20 0 11 -4 20 -10 20 -5 0 -10 14 -10 30 0 17 4 30 10 30 15 0 30 -35 30 -69 0 -29 2 -31 40 -31 33 0 40 3 40 20 0 11 -4 20 -10 20 -5 0 -17 14 -25 31 -15 28 -15 32 0 42 24 18 31 82 11 112 -15 22 -23 25 -79 25 l-62 0 0 -125z"
       id="path94" />
    <path
       d="M8212 3168 c-8 -8 -12 -48 -12 -113 0 -65 4 -105 12 -113 19 -19 102 -15 121 6 24 26 24 193 1 216 -19 19 -104 22 -122 4z"
       id="path96" />
  </g>
</svg>
